# AST/ASF file generated using VICON BodyLanguage
# -----------------------------------------------
:version 1.10
:name VICON
:units
  mass 1.0
  length 0.45
  angle deg
:documentation
   .ast/.asf automatically generated from VICON data using
   VICON BodyBuilder and BodyLanguage model FoxedUp or BRILLIANT.MOD
:root
   order TX TY TZ RX RY RZ
   axis XYZ
   position 0 0 0  
   orientation 0 0 0 
:bonedata
  begin
     id 1 
     name lhipjoint
     direction 0.710188 -0.616876 0.339259 
     length 2.5669 
     axis 0 0 0  XYZ
  end
  begin
     id 2 
     name lfemur
     direction 0.34202 -0.939693 0  
     length 7.12796  
     axis 0 0 20  XYZ
    dof rx ry rz
    limits (-160.0 20.0)
           (-70.0 70.0)
           (-60.0 70.0)
  end
  begin
     id 3 
     name ltibia
     direction 0.34202 -0.939693 0   
     length 7.58108   
     axis 0 0 20   XYZ
    dof rx
    limits (-10.0 170.0)
  end
  begin
     id 4 
     name lfoot
     direction 0.0669471 -0.183936 0.980656   
     length 2.17365   
     axis -90 7.62852e-016 20   XYZ
    dof rx rz
    limits (-45.0 90.0)
           (-70.0 20.0)
  end
  begin
     id 5 
     name ltoes
     direction 1.53508e-011 -4.21705e-011 1   
     length 1.09427   
     axis -90 7.62852e-016 20   XYZ
    dof rx
    limits (-90.0 20.0)
  end
  begin
     id 6 
     name rhipjoint
     direction -0.700191 -0.625589 0.34405   
     length 2.53115  
     axis 0 0 0  XYZ 
  end
  begin
     id 7 
     name rfemur
     direction -0.34202 -0.939693 0   
     length 7.33006   
     axis 0 0 -20   XYZ
    dof rx ry rz
    limits (-160.0 20.0)
           (-70.0 70.0)
           (-70.0 60.0)
  end
  begin
     id 8 
     name rtibia
     direction -0.34202 -0.939693 0   
     length 7.64926   
     axis 0 0 -20   XYZ
    dof rx
    limits (-10.0 170.0)
 end
 begin
     id 9 
     name rfoot
     direction -0.0688927 -0.189281 0.979503   
     length 2.20493  
     axis -90 -7.62852e-016 -20   XYZ
    dof rx rz
    limits (-45.0 90.0)
           (-20.0 70.0)
  end
  begin
     id 10 
     name rtoes
     direction -1.53567e-011 -4.21933e-011 1   
     length 1.10919   
     axis -90 -7.62852e-016 -20   XYZ
    dof rx
    limits (-90.0 20.0)
  end
  begin
     id 11 
     name lowerback
     direction -0.0167868 0.989873 -0.140959   
     length 2.14596   
     axis 0 0 0   XYZ
    dof rx ry rz
    limits (-20.0 45.0)
           (-30.0 30.0)
           (-30.0 30.0)
  end
  begin
     id 12 
     name upperback
     direction 0.0129109 0.998033 0.0613525   
     length 2.10457   
     axis 0 0 0   XYZ
    dof rx ry rz
    limits (-20.0 45.0)
           (-30.0 30.0)
           (-30.0 30.0)
  end
  begin
     id 13 
     name thorax
     direction 0.0177047 0.991119 0.131797   
     length 2.17652   
     axis 0 0 0   XYZ
    dof rx ry rz
    limits (-20.0 45.0)
           (-30.0 30.0)
           (-30.0 30.0)
  end
  begin
     id 14 
     name lowerneck
     direction -0.0336893 0.997548 0.0613464   
     length 1.8912   
     axis 0 0 0   XYZ
    dof rx ry rz
    limits (-20.0 45.0)
           (-30.0 30.0)
           (-30.0 30.0)
  end
  begin
     id 15 
     name upperneck
     direction 0.0435909 0.997179 -0.0611028   
     length 1.8829   
     axis 0 0 0   XYZ
    dof rx ry rz
    limits (-20.0 45.0)
           (-30.0 30.0)
           (-30.0 30.0)
  end
  begin
     id 16
     name head
     direction 0.0175076 0.999444 -0.0283782  
     length 1.93197  
     axis 0 0 0   XYZ
    dof rx ry rz
    limits (-20.0 45.0)
           (-30.0 30.0)
           (-30.0 30.0)
  end
  begin
     id 17 
     name lclavicle
     direction 0.919164 0.389875 0.0559876  
     length 3.60004  
     axis 0 0 0   XYZ
    dof ry rz
    limits (-20.0 10.0)
           (0.0 20.0)
  end
  begin
     id 18 
     name lhumerus
     direction 1 -4.48958e-011 6.89191e-027   
     length 5.43301   
     axis 180 -30 -90   XYZ
    dof rx ry rz
    limits (-60.0 90.0)
           (-90.0 90.0)
           (-90.0 90.0)
  end
  begin
     id 19
     name lradius
     direction 1 -4.4897e-011 3.24727e-027   
     length 3.15936   
     axis 180 -30 -90   XYZ
    dof rx
    limits (-10.0 170.0)
  end
  begin
     id 20
     name lwrist
     direction 1 -4.4897e-011 9.00228e-027   
     length 1.57968   
     axis -6.29373e-015 90 90   XYZ
    dof ry
    limits (-180.0 0.0)
 end
  begin
     id 21 
     name lhand
     direction 1 -4.48968e-011 1.80042e-026   
     length 0.712827   
     axis -1.14882e-014 90 90   XYZ
    dof rx rz
    limits (-90.0 90.0)
           (-45.0 45.0)
  end
  begin
     id 22 
     name lfingers
     direction 1 -4.49019e-011 3.60267e-026   
     length 0.574699   
     axis -2.29769e-014 90 90   XYZ
    dof rx
    limits (0.0 90.0)
  end
  begin
     id 23
     name lthumb
     direction 0.707107 -6.3498e-011 0.707107   
     length 0.825157   
     axis -90 45 5.37419e-014   XYZ
    dof rx rz
    limits (-45.0 45.0)
           (-45.0 45.0)
  end
  begin
     id 24 
     name rclavicle
     direction -0.890334 0.455305 -0.00132111   
     length 3.51494  
     axis 0 0 0   XYZ 
    dof ry rz
    limits (-10.0 20.0)
           (-20.0 0.0)
  end
  begin
     id 25 
     name rhumerus
     direction -1 -4.48967e-011 5.07175e-028  
     length 5.34194   
     axis 180 30 90   XYZ
    dof rx ry rz
    limits (-90.0 60.0)
           (-90.0 90.0)
           (-90.0 90.0)
  end
  begin
     id 26 
     name rradius
     direction -1 -4.48955e-011 3.30467e-027   
     length 3.19351   
     axis 180 30 90   XYZ
    dof rx
    limits (-10.0 170.0)
  end
  begin
     id 27 
     name rwrist
     direction -1 -4.48968e-011 9.00208e-027   
     length 1.59676   
     axis -6.29373e-015 -90 -90   XYZ
    dof ry
    limits (-180.0 0.0)
  end
  begin
     id 28
     name rhand
     direction -1 -4.49e-011 1.80099e-026   
     length 0.743862   
     axis -1.14882e-014 -90 -90   XYZ
    dof rx rz
    limits (-90.0 90.0)
           (-45.0 45.0)
  end
  begin
     id 29
     name rfingers
     direction -1 -4.49009e-011 3.6023e-026   
     length 0.599721   
     axis -2.29769e-014 -90 -90   XYZ
    dof rx
    limits (0.0 90.0)
  end
  begin
     id 30
     name rthumb
     direction -0.707107 -6.35025e-011 0.707107   
     length 0.861083   
     axis -90 -45 -5.37419e-014   XYZ
    dof rx rz
    limits (-45.0 45.0)
           (-45.0 45.0)
  end
:hierarchy
  begin
    root lhipjoint rhipjoint lowerback
    lhipjoint lfemur
    lfemur ltibia
    ltibia lfoot
    lfoot ltoes
    rhipjoint rfemur
    rfemur rtibia
    rtibia rfoot
    rfoot rtoes
    lowerback upperback
    upperback thorax
    thorax lowerneck lclavicle rclavicle
    lowerneck upperneck
    upperneck head
    lclavicle lhumerus
    lhumerus lradius
    lradius lwrist
    lwrist lhand lthumb
    lhand lfingers
    rclavicle rhumerus
    rhumerus rradius
    rradius rwrist
    rwrist rhand rthumb
    rhand rfingers
  end

#!OML:ASF H:\Martial Arts Walks\Project 1\Capture day 1\Session 1\male.ASF
:FULLY-SPECIFIED
:DEGREES
688
root -8.43578 14.262 1.32828 -64.8483 75.7678 -71.1166
lowerback 27.0873 -0.555901 -5.98576
upperback 3.30621 -1.30164 6.82319
thorax -10.6206 -0.120282 11.1349
lowerneck 7.32303 -15.8501 -14.5523
upperneck -4.10026 -22.1114 23.6782
head 2.01603 -11.5424 8.83374
rclavicle 1.63003e-014 2.38542e-015
rhumerus -28.9105 -8.07154 -50.0386
rradius 107.984
rwrist -20.6734
rhand -25.3606 -41.633
rfingers 7.12502
rthumb 1.16333 -71.6096
lclavicle 1.63003e-014 2.38542e-015
lhumerus -20.9205 -56.1039 92.8109
lradius 108.158
lwrist 21.7404
lhand 4.91782 4.1554
lfingers 7.12502
lthumb 30.2916 31.6895
rfemur -36.3516 -4.05461 -2.73023
rtibia 52.0212
rfoot 10.0876 8.35562
rtoes -10.6667
lfemur -51.693 27.9244 1.60068
ltibia 81.095
lfoot -20.2478 20.233
ltoes -0.149786
689
root -8.43247 14.2235 1.47084 -64.3229 76.0356 -70.6853
lowerback 26.7405 -0.638331 -6.13211
upperback 3.22663 -1.45679 6.77616
thorax -10.5085 -0.195591 11.2128
lowerneck 7.31868 -15.9123 -14.6917
upperneck -3.90837 -22.2387 23.6193
head 2.10435 -11.596 8.80865
rclavicle 1.82882e-014 -1.74931e-014
rhumerus -28.7444 -7.8589 -50.0309
rradius 108.175
rwrist -20.6339
rhand -25.1399 -41.4928
rfingers 7.12502
rthumb 1.37642 -71.4682
lclavicle 1.82882e-014 -1.74931e-014
lhumerus -21.203 -55.9609 93.1393
lradius 108.219
lwrist 21.6371
lhand 4.23457 4.23622
lfingers 7.12502
lthumb 29.6396 31.8881
rfemur -35.9486 -4.28139 -2.44949
rtibia 52.1954
rfoot 7.26587 6.87248
rtoes -13.7708
lfemur -51.726 27.3923 2.01606
ltibia 81.1601
lfoot -19.9258 20.1992
ltoes 1.18647
690
root -8.42834 14.1812 1.61396 -64.0127 76.22 -70.4067
lowerback 26.5007 -0.732436 -6.0691
upperback 3.11309 -1.57253 6.69411
thorax -10.497 -0.25426 11.1222
lowerneck 7.41216 -15.9284 -14.6185
upperneck -3.81058 -22.2708 23.4952
head 2.09817 -11.6116 8.76427
rclavicle -1.70955e-014 -3.97569e-015
rhumerus -28.7271 -7.63883 -49.9691
rradius 108.439
rwrist -20.9151
rhand -25.2428 -41.5302
rfingers 7.12502
rthumb 1.27711 -71.5061
lclavicle -1.70955e-014 -3.97569e-015
lhumerus -21.603 -55.9582 93.4832
lradius 108.306
lwrist 21.4896
lhand 3.45019 4.24787
lfingers 7.12502
lthumb 28.8907 32.0304
rfemur -35.5113 -4.734 -2.02029
rtibia 52.3415
rfoot 3.85738 5.92688
rtoes -12.696
lfemur -51.7091 26.8934 2.53583
ltibia 81.2316
lfoot -19.6086 20.2724
ltoes 1.33684
691
root -8.42586 14.1435 1.75459 -63.6506 76.3807 -70.0569
lowerback 26.2874 -0.839481 -6.00025
upperback 3.01645 -1.70105 6.63
thorax -10.4766 -0.319582 11.0519
lowerneck 7.4271 -15.9325 -14.6436
upperneck -3.62629 -22.3034 23.4074
head 2.14604 -11.6199 8.7316
rclavicle -5.96354e-015 3.89618e-014
rhumerus -28.5649 -7.43241 -49.9298
rradius 108.622
rwrist -21.2301
rhand -24.9208 -41.3091
rfingers 7.12502
rthumb 1.58804 -71.283
lclavicle -5.96354e-015 3.89618e-014
lhumerus -21.8813 -55.8678 93.7954
lradius 108.355
lwrist 21.3226
lhand 2.68122 4.39953
lfingers 7.12502
lthumb 28.1559 32.3053
rfemur -35.1164 -5.17127 -1.57575
rtibia 52.4362
rfoot 0.962947 5.58835
rtoes -16.0741
lfemur -51.6414 26.3597 3.12012
ltibia 81.2757
lfoot -19.8482 19.9359
ltoes 1.53078
692
root -8.42283 14.1064 1.89208 -63.3749 76.5408 -69.8031
lowerback 26.1457 -0.928105 -5.9167
upperback 3.07163 -1.81123 6.27317
thorax -10.6958 -0.304135 11.317
lowerneck 7.47777 -15.9495 -14.7472
upperneck -3.43904 -22.3669 23.3898
head 2.21324 -11.6463 8.72889
rclavicle 8.34896e-015 3.57812e-014
rhumerus -28.4425 -7.27333 -49.8147
rradius 108.82
rwrist -21.5735
rhand -24.7089 -41.0991
rfingers 7.12502
rthumb 1.79268 -71.0714
lclavicle 8.34896e-015 3.57812e-014
lhumerus -22.2411 -55.8317 94.2012
lradius 108.395
lwrist 21.1014
lhand 1.5822 4.44844
lfingers 7.12502
lthumb 27.105 32.5225
rfemur -34.8248 -5.65535 -1.20851
rtibia 52.559
rfoot -1.57561 5.68013
rtoes -19.0515
lfemur -51.6595 25.8849 3.57517
ltibia 81.3189
lfoot -19.8521 19.6438
ltoes 0.59959
693
root -8.41896 14.0707 2.02521 -63.3488 76.5446 -69.8057
lowerback 25.9812 -1.04038 -5.63342
upperback 2.95746 -1.87768 6.27069
thorax -10.7373 -0.343784 11.159
lowerneck 7.48184 -15.9905 -14.7217
upperneck -3.26349 -22.4418 23.3015
head 2.26259 -11.6755 8.68323
rclavicle 4.79071e-014 3.18055e-015
rhumerus -28.3286 -7.18426 -49.6735
rradius 109.01
rwrist -21.8819
rhand -24.1764 -40.696
rfingers 7.12502
rthumb 2.30699 -70.6633
lclavicle 4.79071e-014 3.18055e-015
lhumerus -22.4613 -55.829 94.5693
lradius 108.375
lwrist 20.8657
lhand 0.615218 4.62355
lfingers 7.12502
lthumb 26.1795 32.8383
rfemur -34.6288 -6.03495 -0.736466
rtibia 52.7448
rfoot -3.88474 5.77696
rtoes -20.7695
lfemur -51.71 25.4271 4.21047
ltibia 81.3532
lfoot -20.8732 17.8743
ltoes -0.159307
694
root -8.41609 14.0321 2.15295 -63.2004 76.6174 -69.7877
lowerback 25.7789 -1.17848 -5.3293
upperback 2.7951 -1.97811 6.2401
thorax -10.809 -0.399297 10.9667
lowerneck 7.48603 -16.0363 -14.7457
upperneck -3.07645 -22.5312 23.2438
head 2.32781 -11.7118 8.65042
rclavicle -2.44505e-014 1.19271e-014
rhumerus -28.1671 -7.13937 -49.5343
rradius 109.166
rwrist -22.0233
rhand -23.7054 -40.5354
rfingers 7.12502
rthumb 2.76187 -70.4973
lclavicle -2.44505e-014 1.19271e-014
lhumerus -22.7915 -55.8041 94.9176
lradius 108.426
lwrist 20.6358
lhand -0.227831 4.66933
lfingers 7.12502
lthumb 25.3721 33.0013
rfemur -34.6599 -6.6417 -0.341979
rtibia 53.0577
rfoot -5.92452 6.07373
rtoes -22.5269
lfemur -52.0052 25.0133 4.59435
ltibia 81.4466
lfoot -21.7732 16.1461
ltoes -0.903643
695
root -8.4147 13.9907 2.27449 -63.2049 76.6343 -69.9946
lowerback 25.5624 -1.36156 -4.94271
upperback 2.61779 -2.11085 6.23616
thorax -10.8862 -0.472604 10.7674
lowerneck 7.49341 -16.0533 -14.7682
upperneck -2.96969 -22.5707 23.2232
head 2.36474 -11.7269 8.63856
rclavicle 4.23411e-014 -7.07673e-014
rhumerus -27.9223 -7.05581 -49.452
rradius 109.287
rwrist -21.8938
rhand -23.3581 -40.2565
rfingers 7.12502
rthumb 3.0973 -70.2138
lclavicle 4.23411e-014 -7.07673e-014
lhumerus -22.9866 -55.7007 95.1995
lradius 108.45
lwrist 20.4401
lhand -1.05778 4.74146
lfingers 7.12502
lthumb 24.5768 33.1839
rfemur -34.9247 -7.43795 0.184731
rtibia 53.5474
rfoot -7.881 6.20486
rtoes -25.6519
lfemur -52.4533 24.6589 5.00361
ltibia 81.6083
lfoot -22.6683 14.5821
ltoes -1.51381
696
root -8.41258 13.9537 2.39047 -63.1603 76.626 -70.1783
lowerback 25.314 -1.59976 -4.52216
upperback 2.44736 -2.30702 6.233
thorax -10.9274 -0.58056 10.5664
lowerneck 7.47249 -16.0505 -14.7723
upperneck -2.86829 -22.5766 23.1332
head 2.38698 -11.7229 8.60577
rclavicle -5.26779e-014 4.05521e-014
rhumerus -27.5596 -6.88356 -49.4183
rradius 109.354
rwrist -21.5784
rhand -22.8337 -40.0147
rfingers 7.12502
rthumb 3.60366 -69.964
lclavicle -5.26779e-014 4.05521e-014
lhumerus -23.1849 -55.4349 95.4045
lradius 108.527
lwrist 20.2479
lhand -1.52268 4.86959
lfingers 7.12502
lthumb 24.1311 33.3719
rfemur -35.4123 -8.36122 0.720478
rtibia 54.205
rfoot -9.30883 6.65988
rtoes -25.1371
lfemur -52.8647 24.2427 5.44804
ltibia 81.7907
lfoot -23.4976 13.3672
ltoes -2.03914
697
root -8.41094 13.9106 2.50036 -62.912 76.6344 -70.2281
lowerback 24.9869 -1.82119 -4.11374
upperback 2.26433 -2.48607 6.23419
thorax -10.9456 -0.681993 10.3666
lowerneck 7.52391 -16.0438 -14.7986
upperneck -2.87079 -22.5723 23.0954
head 2.37507 -11.7225 8.6038
rclavicle -4.41302e-014 6.12257e-014
rhumerus -27.2114 -6.74393 -49.3618
rradius 109.425
rwrist -21.1787
rhand -22.7824 -39.851
rfingers 7.12502
rthumb 3.65328 -69.7994
lclavicle -4.41302e-014 6.12257e-014
lhumerus -23.4388 -55.2569 95.517
lradius 108.686
lwrist 20.1507
lhand -1.95853 4.87196
lfingers 7.12502
lthumb 23.7132 33.4291
rfemur -36.1104 -9.50898 1.34577
rtibia 55.0311
rfoot -10.7608 6.78227
rtoes -25.8684
lfemur -53.3599 23.913 5.83158
ltibia 82.013
lfoot -24.3561 12.1418
ltoes -2.4294
698
root -8.40878 13.8674 2.60335 -62.3905 76.6626 -70.04
lowerback 24.5936 -2.01701 -3.71071
upperback 2.06943 -2.63927 6.21308
thorax -10.9491 -0.77361 10.1301
lowerneck 7.65453 -16.0454 -14.7805
upperneck -2.94605 -22.5711 23.0524
head 2.32399 -11.7308 8.60525
rclavicle 1.55052e-014 0
rhumerus -26.8763 -6.56971 -49.2328
rradius 109.484
rwrist -20.7205
rhand -22.9258 -39.8086
rfingers 7.12502
rthumb 3.51476 -69.7594
lclavicle 1.55052e-014 0
lhumerus -23.55 -54.9445 95.8595
lradius 108.717
lwrist 19.9785
lhand -2.0934 5.12873
lfingers 7.12502
lthumb 23.5838 33.7026
rfemur -36.9606 -10.68 1.93095
rtibia 55.9649
rfoot -11.7767 7.11503
rtoes -24.5886
lfemur -53.855 23.6541 6.10601
ltibia 82.2313
lfoot -25.1896 11.0884
ltoes -3.15077
699
root -8.40624 13.8278 2.70091 -61.2526 76.7768 -69.2089
lowerback 24.2179 -2.14432 -3.56579
upperback 1.86206 -2.77386 6.21474
thorax -10.9661 -0.842956 10.0719
lowerneck 7.78826 -16.0301 -14.7996
upperneck -2.97773 -22.5544 22.9242
head 2.27511 -11.7283 8.58691
rclavicle 4.90998e-014 2.70347e-014
rhumerus -26.4671 -6.30077 -49.0068
rradius 109.526
rwrist -20.3861
rhand -22.7988 -39.6727
rfingers 7.12502
rthumb 3.63737 -69.6215
lclavicle 4.90998e-014 2.70347e-014
lhumerus -23.8544 -54.6505 96.2369
lradius 108.875
lwrist 19.8313
lhand -2.16948 5.04713
lfingers 7.12502
lthumb 23.5108 33.6303
rfemur -37.9105 -11.7773 2.36536
rtibia 56.9544
rfoot -12.4984 7.64156
rtoes -21.5061
lfemur -54.2027 23.4546 6.27025
ltibia 82.4374
lfoot -26.126 9.81866
ltoes -3.24098
700
root -8.40347 13.7854 2.79381 -59.7784 76.9066 -68.0457
lowerback 23.813 -2.23851 -3.43707
upperback 1.65944 -2.87399 6.19077
thorax -10.9684 -0.897643 9.97841
lowerneck 7.88511 -16.0287 -14.8237
upperneck -2.95597 -22.5617 22.7918
head 2.25225 -11.7335 8.55894
rclavicle 6.16232e-015 -5.80451e-014
rhumerus -26.0676 -6.10204 -48.8025
rradius 109.538
rwrist -19.9916
rhand -23.0393 -39.6475
rfingers 7.12502
rthumb 3.40516 -69.6
lclavicle 6.16232e-015 -5.80451e-014
lhumerus -24.0554 -54.3646 96.6823
lradius 108.906
lwrist 19.6501
lhand -2.42563 4.7685
lfingers 7.12502
lthumb 23.2651 33.383
rfemur -38.9098 -12.9648 2.82948
rtibia 57.9697
rfoot -13.3898 7.89645
rtoes -20.1608
lfemur -54.5164 23.3424 6.36683
ltibia 82.6409
lfoot -26.8158 9.06502
ltoes -3.69899
701
root -8.40169 13.7446 2.88261 -58.0253 76.9853 -66.5479
lowerback 23.4296 -2.33941 -3.3361
upperback 1.48766 -2.99468 6.13986
thorax -10.9423 -0.964012 9.87481
lowerneck 7.91244 -15.984 -14.8351
upperneck -2.81478 -22.519 22.6854
head 2.26769 -11.7068 8.53232
rclavicle 1.09332e-014 -8.74653e-015
rhumerus -25.6191 -5.86679 -48.6893
rradius 109.572
rwrist -19.694
rhand -23.3138 -39.7797
rfingers 7.12502
rthumb 3.14009 -69.7364
lclavicle 1.09332e-014 -8.74653e-015
lhumerus -24.2952 -54.0166 96.9656
lradius 109.038
lwrist 19.6175
lhand -2.48776 4.72097
lfingers 7.12502
lthumb 23.2055 33.343
rfemur -39.8888 -13.9874 3.32104
rtibia 58.956
rfoot -14.4153 7.84315
rtoes -20.3067
lfemur -54.6788 23.3196 6.53164
ltibia 82.8137
lfoot -27.2915 8.63061
ltoes -4.01052
702
root -8.40021 13.702 2.96458 -55.7749 77.1856 -64.5205
lowerback 23.0438 -2.39142 -3.34592
upperback 1.32609 -3.09309 6.00557
thorax -10.9055 -1.01891 9.73066
lowerneck 7.94091 -15.9745 -14.7359
upperneck -2.69254 -22.5089 22.553
head 2.26744 -11.6971 8.48083
rclavicle 4.03533e-014 -4.77083e-014
rhumerus -25.2065 -5.73002 -48.5828
rradius 109.62
rwrist -19.6078
rhand -23.5543 -39.9904
rfingers 7.12502
rthumb 2.90778 -69.9503
lclavicle 4.03533e-014 -4.77083e-014
lhumerus -24.3761 -53.7938 97.1948
lradius 109.099
lwrist 19.6284
lhand -2.52215 4.78819
lfingers 7.12502
lthumb 23.1725 33.4144
rfemur -40.8311 -15.0767 3.70492
rtibia 59.9146
rfoot -15.8731 6.97615
rtoes -24.4388
lfemur -54.7437 23.2718 6.54306
ltibia 82.9489
lfoot -27.5842 8.52417
ltoes -4.27428
